<svg width="180" height="120" xmlns="http://www.w3.org/2000/svg" color-interpolation-filters="sRGB" preserveAspectRatio="xMidYMid meet" version="1.0">
 <g>
  <title>Layer 1</title>
  <g id="svg_23">
   <g id="svg_2" class="icon-text-wrapper icon-svg-group iconsvg" fill="#333333">
    <g id="svg_3" class="iconsvg-imagesvg icon_container" fill="#333333">
     <rect id="svg_4" class="image-rect" height="75.50851" width="75.50851" y="-13.53395" x="52.31264" stroke-width="2" fill-opacity="0" fill="#333333"/>
    </g>
    <g id="svg_5">
     <g id="svg_6" class="tp-name iconsvg-namesvg" data-gra="path-name" stroke="null">
      <g id="svg_7" transform="translate(110.249 59.3757) scale(1 1)" stroke="null">
       <g id="svg_8" stroke="null">
        <path id="svg_9" d="m-52.91311,17.89881l1.16,-7.87l-27.03,0l-1.15,7.87l9.17,0l-3.6,26.16l8.69,0l3.6,-26.16l9.16,0zm0.15,14.98c-1.11,7.77 5.37,11.66 12.43,11.66c7.39,0 14.64,-3.89 15.74,-11.66l1.68,-11.62c1.11,-7.78 -5.42,-11.66 -12.48,-11.66c-7.05,0 -14.54,3.84 -15.69,11.66l-1.68,11.62zm10.27,-11.62c0.38,-2.54 3.41,-3.84 6.19,-3.84c2.79,0 5.19,1.3 4.8,3.84l-1.68,11.38c-0.38,2.68 -3.41,3.93 -6.19,3.93c-2.59,0 -5.14,-1.25 -4.8,-3.69l1.68,-11.62zm25.63,-11.18l-4.75,33.98l12.72,0c6.82,0 13.63,-3.36 14.74,-11.18l1.63,-11.43c1.1,-7.92 -4.8,-11.37 -11.62,-11.37l-12.72,0zm4.99,25.92l2.55,-17.91l4.37,0c2.35,0 4.03,1.49 3.79,3.36l-1.63,11.43c-0.24,1.82 -2.36,3.12 -4.71,3.12l-4.37,0zm21.46,-3.12c-1.1,7.77 5.38,11.66 12.43,11.66c7.39,0 14.64,-3.89 15.75,-11.66l1.68,-11.62c1.1,-7.78 -5.43,-11.66 -12.48,-11.66c-7.06,0 -14.55,3.84 -15.7,11.66l-1.68,11.62zm10.27,-11.62c0.39,-2.54 3.41,-3.84 6.19,-3.84c2.79,0 5.19,1.3 4.8,3.84l-1.68,11.38c-0.38,2.68 -3.4,3.93 -6.19,3.93c-2.59,0 -5.13,-1.25 -4.8,-3.69l1.68,-11.62z" stroke="null" fill="#5f5f5f"/>
       </g>
      </g>
     </g>
     <g id="svg_10" fill="#333333" class="tp-slogan iconsvg-slogansvg" data-gra="path-slogan">
      <!---->
      <!---->
      <g id="svg_11" transform="translate(110.249 59.3757) scale(1 1)">
       <g id="svg_12" transform="translate(0 82.5085) scale(1 1)">
        <path id="svg_13" d="m-106.99224,-24.2897l0,-5.86l-1.98,0l0,-0.7l4.8,0l0,0.7l-1.98,0l0,5.86l-0.84,0zm6.18,0.12l0,0q-0.62,0 -1.14,-0.24q-0.51,-0.24 -0.88,-0.69q-0.37,-0.44 -0.58,-1.08q-0.2,-0.63 -0.2,-1.42l0,0q0,-0.79 0.2,-1.42q0.21,-0.62 0.58,-1.06q0.37,-0.43 0.88,-0.66q0.52,-0.23 1.14,-0.23l0,0q0.62,0 1.13,0.23q0.52,0.24 0.89,0.67q0.38,0.44 0.58,1.07q0.21,0.62 0.21,1.4l0,0q0,0.79 -0.21,1.42q-0.2,0.64 -0.58,1.08q-0.37,0.45 -0.89,0.69q-0.51,0.24 -1.13,0.24zm0,-0.73l0,0q0.44,0 0.79,-0.19q0.36,-0.19 0.62,-0.54q0.25,-0.36 0.39,-0.85q0.14,-0.5 0.14,-1.12l0,0q0,-0.61 -0.14,-1.1q-0.14,-0.49 -0.39,-0.83q-0.26,-0.34 -0.62,-0.52q-0.35,-0.19 -0.79,-0.19l0,0q-0.44,0 -0.8,0.19q-0.35,0.18 -0.6,0.52q-0.26,0.34 -0.4,0.83q-0.14,0.49 -0.14,1.1l0,0q0,0.62 0.14,1.12q0.14,0.49 0.4,0.85q0.25,0.35 0.6,0.54q0.36,0.19 0.8,0.19zm3.73,-1.58l0,-0.63l2.3,0l0,0.63l-2.3,0zm3.6,2.19l0,-6.56l1.64,0q1.52,0 2.31,0.84q0.79,0.84 0.79,2.41l0,0q0,0.78 -0.2,1.39q-0.2,0.62 -0.59,1.04q-0.39,0.43 -0.96,0.65q-0.57,0.23 -1.31,0.23l0,0l-1.68,0zm0.83,-0.68l0.75,0q1.15,0 1.73,-0.69q0.57,-0.69 0.57,-1.94l0,0q0,-1.25 -0.57,-1.91q-0.58,-0.66 -1.73,-0.66l0,0l-0.75,0l0,5.2zm7.74,0.8l0,0q-0.62,0 -1.13,-0.24q-0.52,-0.24 -0.89,-0.69q-0.37,-0.44 -0.57,-1.08q-0.21,-0.63 -0.21,-1.42l0,0q0,-0.79 0.21,-1.42q0.2,-0.62 0.57,-1.06q0.37,-0.43 0.89,-0.66q0.51,-0.23 1.13,-0.23l0,0q0.62,0 1.14,0.23q0.51,0.24 0.89,0.67q0.37,0.44 0.58,1.07q0.2,0.62 0.2,1.4l0,0q0,0.79 -0.2,1.42q-0.21,0.64 -0.58,1.08q-0.38,0.45 -0.89,0.69q-0.52,0.24 -1.14,0.24zm0,-0.73l0,0q0.44,0 0.8,-0.19q0.35,-0.19 0.61,-0.54q0.25,-0.36 0.39,-0.85q0.14,-0.5 0.14,-1.12l0,0q0,-0.61 -0.14,-1.1q-0.14,-0.49 -0.39,-0.83q-0.26,-0.34 -0.61,-0.52q-0.36,-0.19 -0.8,-0.19l0,0q-0.44,0 -0.79,0.19q-0.36,0.18 -0.61,0.52q-0.26,0.34 -0.4,0.83q-0.14,0.49 -0.14,1.1l0,0q0,0.62 0.14,1.12q0.14,0.49 0.4,0.85q0.25,0.35 0.61,0.54q0.35,0.19 0.79,0.19zm6.24,0.61l0,-6.56l0.83,0l0,5.85l2.87,0l0,0.71l-3.7,0zm4.86,0l0,-6.56l0.83,0l0,6.56l-0.83,0zm2.15,-0.85l0.5,-0.58q0.35,0.37 0.83,0.6q0.47,0.22 0.98,0.22l0,0q0.65,0 1.01,-0.3q0.36,-0.29 0.36,-0.77l0,0q0,-0.25 -0.08,-0.42q-0.09,-0.18 -0.23,-0.31q-0.15,-0.12 -0.35,-0.22q-0.2,-0.1 -0.43,-0.21l0,0l-0.94,-0.41q-0.23,-0.1 -0.47,-0.24q-0.24,-0.14 -0.43,-0.34q-0.19,-0.2 -0.31,-0.47q-0.12,-0.28 -0.12,-0.64l0,0q0,-0.37 0.16,-0.69q0.15,-0.32 0.43,-0.56q0.27,-0.23 0.65,-0.36q0.37,-0.13 0.82,-0.13l0,0q0.59,0 1.09,0.22q0.5,0.23 0.85,0.59l0,0l-0.45,0.54q-0.3,-0.29 -0.66,-0.46q-0.37,-0.16 -0.83,-0.16l0,0q-0.55,0 -0.88,0.25q-0.34,0.26 -0.34,0.71l0,0q0,0.24 0.1,0.41q0.09,0.16 0.25,0.29q0.16,0.12 0.35,0.21q0.19,0.1 0.39,0.18l0,0l0.93,0.4q0.28,0.12 0.53,0.27q0.25,0.16 0.43,0.36q0.18,0.21 0.29,0.48q0.1,0.28 0.1,0.64l0,0q0,0.39 -0.15,0.73q-0.16,0.34 -0.45,0.6q-0.29,0.25 -0.7,0.39q-0.41,0.15 -0.93,0.15l0,0q-0.69,0 -1.28,-0.26q-0.59,-0.26 -1.02,-0.71l0,0zm6.98,0.85l0,-5.86l-1.98,0l0,-0.7l4.8,0l0,0.7l-1.98,0l0,5.86l-0.84,0zm6.02,0l0,-6.56l0.83,0l0,6.56l-0.83,0zm2.15,-0.85l0.5,-0.58q0.35,0.37 0.83,0.6q0.47,0.22 0.98,0.22l0,0q0.65,0 1.01,-0.3q0.36,-0.29 0.36,-0.77l0,0q0,-0.25 -0.08,-0.42q-0.09,-0.18 -0.23,-0.31q-0.15,-0.12 -0.35,-0.22q-0.2,-0.1 -0.43,-0.21l0,0l-0.94,-0.41q-0.23,-0.1 -0.47,-0.24q-0.24,-0.14 -0.43,-0.34q-0.19,-0.2 -0.31,-0.47q-0.12,-0.28 -0.12,-0.64l0,0q0,-0.37 0.16,-0.69q0.15,-0.32 0.43,-0.56q0.27,-0.23 0.65,-0.36q0.37,-0.13 0.82,-0.13l0,0q0.59,0 1.09,0.22q0.5,0.23 0.85,0.59l0,0l-0.45,0.54q-0.3,-0.29 -0.66,-0.46q-0.37,-0.16 -0.83,-0.16l0,0q-0.55,0 -0.88,0.25q-0.34,0.26 -0.34,0.71l0,0q0,0.24 0.1,0.41q0.09,0.16 0.25,0.29q0.16,0.12 0.35,0.21q0.19,0.1 0.39,0.18l0,0l0.93,0.4q0.28,0.12 0.53,0.27q0.25,0.16 0.43,0.36q0.18,0.21 0.29,0.48q0.1,0.28 0.1,0.64l0,0q0,0.39 -0.15,0.73q-0.16,0.34 -0.45,0.6q-0.29,0.25 -0.7,0.39q-0.41,0.15 -0.93,0.15l0,0q-0.69,0 -1.28,-0.26q-0.59,-0.26 -1.02,-0.71l0,0zm7.84,0.85l0,-6.56l3.78,0l0,0.7l-2.95,0l0,2.06l2.49,0l0,0.71l-2.49,0l0,2.38l3.05,0l0,0.71l-3.88,0zm6.47,0l-2.1,-6.56l0.89,0l1.05,3.54q0.18,0.59 0.32,1.09q0.13,0.5 0.32,1.08l0,0l0.04,0q0.18,-0.58 0.32,-1.08q0.14,-0.5 0.31,-1.09l0,0l1.05,-3.54l0.85,0l-2.08,6.56l-0.97,0zm3.95,0l0,-6.56l3.78,0l0,0.7l-2.95,0l0,2.06l2.49,0l0,0.71l-2.49,0l0,2.38l3.05,0l0,0.71l-3.88,0zm5.27,0l0,-6.56l0.86,0l2.37,4.12l0.71,1.36l0.04,0q-0.03,-0.5 -0.06,-1.04q-0.04,-0.53 -0.04,-1.05l0,0l0,-3.39l0.79,0l0,6.56l-0.86,0l-2.38,-4.13l-0.71,-1.35l-0.04,0q0.04,0.5 0.08,1.02q0.03,0.51 0.03,1.03l0,0l0,3.43l-0.79,0zm8.49,0l0,-6.56l1.95,0q0.5,0 0.92,0.09q0.41,0.09 0.71,0.28q0.29,0.19 0.46,0.49q0.16,0.31 0.16,0.74l0,0q0,0.49 -0.28,0.88q-0.28,0.4 -0.86,0.55l0,0l0,0.04q0.72,0.11 1.12,0.5q0.4,0.39 0.4,1.07l0,0q0,0.48 -0.18,0.84q-0.18,0.36 -0.51,0.6q-0.33,0.24 -0.79,0.36q-0.46,0.12 -1.01,0.12l0,0l-2.09,0zm0.83,-3.76l0.97,0q0.85,0 1.22,-0.29q0.36,-0.29 0.36,-0.84l0,0q0,-0.54 -0.38,-0.78q-0.39,-0.23 -1.16,-0.23l0,0l-1.01,0l0,2.14zm0,3.1l1.14,0q0.85,0 1.32,-0.31q0.47,-0.32 0.47,-0.99l0,0q0,-0.61 -0.46,-0.89q-0.46,-0.29 -1.33,-0.29l0,0l-1.14,0l0,2.48zm5.05,0.66l0,-6.56l3.78,0l0,0.7l-2.95,0l0,2.06l2.49,0l0,0.71l-2.49,0l0,2.38l3.05,0l0,0.71l-3.88,0zm6.63,0l0,-5.86l-1.98,0l0,-0.7l4.8,0l0,0.7l-1.98,0l0,5.86l-0.84,0zm5.36,0l0,-5.86l-1.98,0l0,-0.7l4.8,0l0,0.7l-1.98,0l0,5.86l-0.84,0zm4,0l0,-6.56l3.78,0l0,0.7l-2.95,0l0,2.06l2.49,0l0,0.71l-2.49,0l0,2.38l3.05,0l0,0.71l-3.88,0zm6.1,-5.89l0,2.44l1.1,0q0.77,0 1.18,-0.32q0.41,-0.31 0.41,-0.95l0,0q0,-0.65 -0.41,-0.91q-0.41,-0.26 -1.18,-0.26l0,0l-1.1,0zm3.71,5.89l-0.94,0l-1.58,-2.77l-1.19,0l0,2.77l-0.83,0l0,-6.56l2.05,0q0.5,0 0.93,0.1q0.42,0.09 0.73,0.31q0.3,0.22 0.47,0.57q0.17,0.35 0.17,0.86l0,0q0,0.77 -0.4,1.23q-0.4,0.46 -1.07,0.63l0,0l1.66,2.86zm4.65,0l0,-5.86l-1.98,0l0,-0.7l4.8,0l0,0.7l-1.98,0l0,5.86l-0.84,0zm4,0l0,-6.56l0.83,0l0,2.75l3.05,0l0,-2.75l0.84,0l0,6.56l-0.84,0l0,-3.09l-3.05,0l0,3.09l-0.83,0zm7.34,-2.67l1.97,0l-0.31,-1q-0.18,-0.55 -0.34,-1.09q-0.16,-0.55 -0.32,-1.12l0,0l-0.04,0q-0.15,0.57 -0.31,1.12q-0.16,0.54 -0.34,1.09l0,0l-0.31,1zm2.8,2.67l-0.62,-2l-2.39,0l-0.63,2l-0.85,0l2.22,-6.56l0.94,0l2.22,6.56l-0.89,0zm1.82,0l0,-6.56l0.86,0l2.37,4.12l0.71,1.36l0.04,0q-0.03,-0.5 -0.06,-1.04q-0.04,-0.53 -0.04,-1.05l0,0l0,-3.39l0.79,0l0,6.56l-0.86,0l-2.38,-4.13l-0.71,-1.35l-0.04,0q0.04,0.5 0.08,1.02q0.03,0.51 0.03,1.03l0,0l0,3.43l-0.79,0zm8.49,0l0,-6.56l1.95,0q0.5,0 0.92,0.09q0.41,0.09 0.71,0.28q0.29,0.19 0.46,0.49q0.16,0.31 0.16,0.74l0,0q0,0.49 -0.28,0.88q-0.28,0.4 -0.86,0.55l0,0l0,0.04q0.72,0.11 1.12,0.5q0.4,0.39 0.4,1.07l0,0q0,0.48 -0.18,0.84q-0.18,0.36 -0.51,0.6q-0.33,0.24 -0.79,0.36q-0.46,0.12 -1.01,0.12l0,0l-2.09,0zm0.83,-3.76l0.97,0q0.85,0 1.22,-0.29q0.36,-0.29 0.36,-0.84l0,0q0,-0.54 -0.38,-0.78q-0.39,-0.23 -1.16,-0.23l0,0l-1.01,0l0,2.14zm0,3.1l1.14,0q0.85,0 1.32,-0.31q0.47,-0.32 0.47,-0.99l0,0q0,-0.61 -0.46,-0.89q-0.46,-0.29 -1.33,-0.29l0,0l-1.14,0l0,2.48zm5.05,0.66l0,-6.56l3.78,0l0,0.7l-2.95,0l0,2.06l2.49,0l0,0.71l-2.49,0l0,2.38l3.05,0l0,0.71l-3.88,0zm5.27,0l0,-6.56l3.78,0l0,0.7l-2.95,0l0,2.22l2.5,0l0,0.7l-2.5,0l0,2.94l-0.83,0zm7.26,0.12l0,0q-0.62,0 -1.13,-0.24q-0.52,-0.24 -0.89,-0.69q-0.37,-0.44 -0.57,-1.08q-0.21,-0.63 -0.21,-1.42l0,0q0,-0.79 0.21,-1.42q0.2,-0.62 0.57,-1.06q0.37,-0.43 0.89,-0.66q0.51,-0.23 1.13,-0.23l0,0q0.62,0 1.14,0.23q0.51,0.24 0.89,0.67q0.37,0.44 0.58,1.07q0.2,0.62 0.2,1.4l0,0q0,0.79 -0.2,1.42q-0.21,0.64 -0.58,1.08q-0.38,0.45 -0.89,0.69q-0.52,0.24 -1.14,0.24zm0,-0.73l0,0q0.44,0 0.8,-0.19q0.35,-0.19 0.61,-0.54q0.25,-0.36 0.39,-0.85q0.14,-0.5 0.14,-1.12l0,0q0,-0.61 -0.14,-1.1q-0.14,-0.49 -0.39,-0.83q-0.26,-0.34 -0.61,-0.52q-0.36,-0.19 -0.8,-0.19l0,0q-0.44,0 -0.79,0.19q-0.36,0.18 -0.61,0.52q-0.26,0.34 -0.4,0.83q-0.14,0.49 -0.14,1.1l0,0q0,0.62 0.14,1.12q0.14,0.49 0.4,0.85q0.25,0.35 0.61,0.54q0.35,0.19 0.79,0.19zm5.05,-5.28l0,2.44l1.1,0q0.77,0 1.18,-0.32q0.41,-0.31 0.41,-0.95l0,0q0,-0.65 -0.41,-0.91q-0.41,-0.26 -1.18,-0.26l0,0l-1.1,0zm3.71,5.89l-0.94,0l-1.58,-2.77l-1.19,0l0,2.77l-0.83,0l0,-6.56l2.05,0q0.5,0 0.93,0.1q0.42,0.09 0.73,0.31q0.3,0.22 0.47,0.57q0.17,0.35 0.17,0.86l0,0q0,0.77 -0.4,1.23q-0.4,0.46 -1.07,0.63l0,0l1.66,2.86zm1.27,0l0,-6.56l3.78,0l0,0.7l-2.95,0l0,2.06l2.49,0l0,0.71l-2.49,0l0,2.38l3.05,0l0,0.71l-3.88,0z" fill="#5f5f5f"/>
       </g>
      </g>
     </g>
    </g>
   </g>
   <g id="svg_22">
    <g id="svg_1">
     <g transform="translate(0 95) scale(1 1) skewX(0)" id="svg_14">
      <g fill-rule="evenodd" fill="none" id="svg_15">
       <g fill="#000000" id="svg_16">
        <path d="m104.71075,-93.20736l-38.002,0c-6.065,0 -10.999,4.934 -10.999,10.999l0,38.002c0,6.065 4.934,10.999 10.999,10.999l38.002,0c6.064,0 10.999,-4.934 10.999,-10.999l0,-38.002c0,-6.065 -4.935,-10.999 -10.999,-10.999" id="svg_17" fill="#19a975"/>
       </g>
      </g>
     </g>
    </g>
    <g stroke="null" id="svg_21">
     <path stroke="null" id="svg_19" d="m72.56875,12.27211l32.16158,0.22649l-0.90596,9.17285l-32.38807,0.22649l1.13245,-9.62583z" opacity="undefined" fill="#ffffff"/>
     <path stroke="null" id="svg_20" d="m82.4439,21.03747l10.41855,0.45298l-4.5298,31.25564l-10.41855,0.22649l4.5298,-31.93511z" opacity="undefined" fill="#ffffff"/>
    </g>
   </g>
  </g>
 </g>

</svg>