<svg width="185" height="61" xmlns="http://www.w3.org/2000/svg" version="1.0" preserveAspectRatio="xMidYMid meet" color-interpolation-filters="sRGB">
 <g>
  <title>Layer 1</title>
  <g fill="#333333" class="icon-text-wrapper icon-svg-group iconsvg" id="svg_2">
   <g fill="#333333" class="iconsvg-imagesvg icon_container" id="svg_3">
    <rect fill="#333333" fill-opacity="0" stroke-width="2" x="51.37146" y="-13.76924" width="75.50851" height="75.50851" class="image-rect" id="svg_4"/>
   </g>
   <g id="svg_5">
    <g stroke="null" data-gra="path-name" class="tp-name iconsvg-namesvg" id="svg_6">
     <g stroke="null" transform="translate(110.249 59.3757) scale(1 1)" id="svg_7">
      <g stroke="null" id="svg_8">
       <path fill="#5f5f5f" stroke="null" d="m-18.79546,-35.27766l1.16,-7.87l-27.03,0l-1.15,7.87l9.17,0l-3.6,26.16l8.69,0l3.6,-26.16l9.16,0zm0.15,14.98c-1.11,7.77 5.37,11.66 12.43,11.66c7.39,0 14.64,-3.89 15.74,-11.66l1.68,-11.62c1.11,-7.78 -5.42,-11.66 -12.48,-11.66c-7.05,0 -14.54,3.84 -15.69,11.66l-1.68,11.62zm10.27,-11.62c0.38,-2.54 3.41,-3.84 6.19,-3.84c2.79,0 5.19,1.3 4.8,3.84l-1.68,11.38c-0.38,2.68 -3.41,3.93 -6.19,3.93c-2.59,0 -5.14,-1.25 -4.8,-3.69l1.68,-11.62zm25.63,-11.18l-4.75,33.98l12.72,0c6.82,0 13.63,-3.36 14.74,-11.18l1.63,-11.43c1.1,-7.92 -4.8,-11.37 -11.62,-11.37l-12.72,0zm4.99,25.92l2.55,-17.91l4.37,0c2.35,0 4.03,1.49 3.79,3.36l-1.63,11.43c-0.24,1.82 -2.36,3.12 -4.71,3.12l-4.37,0zm21.46,-3.12c-1.1,7.77 5.38,11.66 12.43,11.66c7.39,0 14.64,-3.89 15.75,-11.66l1.68,-11.62c1.1,-7.78 -5.43,-11.66 -12.48,-11.66c-7.06,0 -14.55,3.84 -15.7,11.66l-1.68,11.62zm10.27,-11.62c0.39,-2.54 3.41,-3.84 6.19,-3.84c2.79,0 5.19,1.3 4.8,3.84l-1.68,11.38c-0.38,2.68 -3.4,3.93 -6.19,3.93c-2.59,0 -5.13,-1.25 -4.8,-3.69l1.68,-11.62z" id="svg_9"/>
      </g>
     </g>
    </g>
    <g data-gra="path-slogan" class="tp-slogan iconsvg-slogansvg" fill="#333333" id="svg_10">
     <!---->
     <!---->
    </g>
   </g>
  </g>
  <g id="svg_22">
   <g id="svg_1">
    <g id="svg_14" transform="translate(0 95) scale(1 1) skewX(0)">
     <g id="svg_15" fill="none" fill-rule="evenodd">
      <g id="svg_16" fill="#000000">
       <path fill="#19a975" id="svg_17" d="m49.65193,-94.38383l-38.002,0c-6.065,0 -10.999,4.934 -10.999,10.999l0,38.002c0,6.065 4.934,10.999 10.999,10.999l38.002,0c6.064,0 10.999,-4.934 10.999,-10.999l0,-38.002c0,-6.065 -4.935,-10.999 -10.999,-10.999"/>
      </g>
     </g>
    </g>
   </g>
   <g id="svg_21" stroke="null">
    <path fill="#ffffff" opacity="undefined" d="m17.50993,11.09564l32.16158,0.22649l-0.90596,9.17285l-32.38807,0.22649l1.13245,-9.62583z" id="svg_19" stroke="null"/>
    <path fill="#ffffff" opacity="undefined" d="m27.38508,19.861l10.41855,0.45298l-4.5298,31.25564l-10.41855,0.22649l4.5298,-31.93511z" id="svg_20" stroke="null"/>
   </g>
  </g>
 </g>

</svg>